<?xml version="1.0" encoding="UTF-8"?>
<svg width="188px" height="18px" viewBox="0 0 188 18" version="1.1" xmlns="http://www.w3.org/2000/svg" xmlns:xlink="http://www.w3.org/1999/xlink">
    <!-- Generator: Sketch 52.3 (67297) - http://www.bohemiancoding.com/sketch -->
    <title>LOGO</title>
    <desc>Created with Sketch.</desc>
    <g id="Page-1" stroke="none" stroke-width="1" fill="none" fill-rule="evenodd">
        <g id="Final" transform="translate(-201.000000, -37.000000)">
            <g id="Nav-bar" transform="translate(200.000000, 25.000000)">
                <g id="LOGO" transform="translate(0.000000, 5.000000)">
                    <path d="M55.296,24.288 C52.2,24.288 49.992,23.256 48.48,21.744 L50.352,19.08 C51.48,20.256 53.232,21.264 55.44,21.264 C57.336,21.264 58.224,20.424 58.224,19.488 C58.224,16.704 49.008,18.648 49.008,12.624 C49.008,9.96 51.312,7.752 55.08,7.752 C57.624,7.752 59.736,8.52 61.32,9.984 L59.424,12.528 C58.128,11.328 56.4,10.776 54.768,10.776 C53.328,10.776 52.512,11.4 52.512,12.36 C52.512,14.88 61.704,13.176 61.704,19.152 C61.704,22.08 59.592,24.288 55.296,24.288 Z M71.112,24 L67.68,24 L67.68,10.992 L63,10.992 L63,7.992 L75.768,7.992 L75.768,10.992 L71.112,10.992 L71.112,24 Z M90.936,24 L87,24 L83.856,18.312 L81.36,18.312 L81.36,24 L77.952,24 L77.952,7.992 L85.44,7.992 C88.776,7.992 90.84,10.176 90.84,13.152 C90.84,15.96 89.04,17.496 87.312,17.904 L90.936,24 Z M84.96,15.312 C86.304,15.312 87.336,14.496 87.336,13.128 C87.336,11.808 86.304,10.992 84.96,10.992 L81.36,10.992 L81.36,15.312 L84.96,15.312 Z M104.712,24 L93.384,24 L93.384,7.992 L104.712,7.992 L104.712,10.992 L96.792,10.992 L96.792,14.352 L104.544,14.352 L104.544,17.352 L96.792,17.352 L96.792,21 L104.712,21 L104.712,24 Z M122.304,24 L118.44,24 L117.432,21.288 L110.568,21.288 L109.56,24 L105.696,24 L111.864,7.992 L116.136,7.992 L122.304,24 Z M116.496,18.288 L114,11.4 L111.504,18.288 L116.496,18.288 Z M141.144,24 L137.712,24 L137.712,12.456 L133.2,24 L131.712,24 L127.2,12.456 L127.2,24 L123.792,24 L123.792,7.992 L128.568,7.992 L132.456,18 L136.344,7.992 L141.144,7.992 L141.144,24 Z M155.64,24 L144.312,24 L144.312,7.992 L155.64,7.992 L155.64,10.992 L147.72,10.992 L147.72,14.352 L155.472,14.352 L155.472,17.352 L147.72,17.352 L147.72,21 L155.64,21 L155.64,24 Z M171.288,24 L167.352,24 L164.208,18.312 L161.712,18.312 L161.712,24 L158.304,24 L158.304,7.992 L165.792,7.992 C169.128,7.992 171.192,10.176 171.192,13.152 C171.192,15.96 169.392,17.496 167.664,17.904 L171.288,24 Z M165.312,15.312 C166.656,15.312 167.688,14.496 167.688,13.128 C167.688,11.808 166.656,10.992 165.312,10.992 L161.712,10.992 L161.712,15.312 L165.312,15.312 Z M175.224,24.264 C174.168,24.264 173.28,23.376 173.28,22.32 C173.28,21.264 174.168,20.376 175.224,20.376 C176.28,20.376 177.168,21.264 177.168,22.32 C177.168,23.376 176.28,24.264 175.224,24.264 Z M188.376,13.272 L187.704,13.272 L187.704,8.904 L185.904,13.272 L185.712,13.272 L183.912,8.904 L183.912,13.272 L183.24,13.272 L183.24,7.992 L184.272,7.992 L185.808,11.832 L187.344,7.992 L188.376,7.992 L188.376,13.272 Z M182.376,8.616 L180.888,8.616 L180.888,13.272 L180.216,13.272 L180.216,8.616 L178.728,8.616 L178.728,7.992 L182.376,7.992 L182.376,8.616 Z" id="STREAMER.™" fill="#B5A2F5"></path>
                    <path d="M15.912,24 L12.624,24 L4.992,13.56 L4.992,24 L1.584,24 L1.584,7.992 L5.088,7.992 L12.504,18.048 L12.504,7.992 L15.912,7.992 L15.912,24 Z M29.136,24 L18.936,24 L18.936,7.992 L22.368,7.992 L22.368,21 L29.136,21 L29.136,24 Z M45.96,24 L41.88,24 L37.872,18.144 L33.84,24 L29.784,24 L35.592,15.792 L30.144,7.992 L34.2,7.992 L37.872,13.464 L41.496,7.992 L45.6,7.992 L40.152,15.768 L45.96,24 Z" id="NLX" fill="#B5A2F5"></path>
                </g>
            </g>
        </g>
    </g>
</svg>